<?xml version="1.0" encoding="utf-8"?><!-- Uploaded to: SVG Repo, www.svgrepo.com, Generator: SVG Repo Mixer Tools -->
<svg width="800px" height="800px" viewBox="0 0 32 32" fill="none" xmlns="http://www.w3.org/2000/svg">
<path d="M2 11.9556C2 8.47078 2 6.7284 2.67818 5.39739C3.27473 4.22661 4.22661 3.27473 5.39739 2.67818C6.7284 2 8.47078 2 11.9556 2H20.0444C23.5292 2 25.2716 2 26.6026 2.67818C27.7734 3.27473 28.7253 4.22661 29.3218 5.39739C30 6.7284 30 8.47078 30 11.9556V20.0444C30 23.5292 30 25.2716 29.3218 26.6026C28.7253 27.7734 27.7734 28.7253 26.6026 29.3218C25.2716 30 23.5292 30 20.0444 30H11.9556C8.47078 30 6.7284 30 5.39739 29.3218C4.22661 28.7253 3.27473 27.7734 2.67818 26.6026C2 25.2716 2 23.5292 2 20.0444V11.9556Z" fill="white"/>
<path d="M16.0019 12.4507L12.541 6.34297C12.6559 6.22598 12.7881 6.14924 12.9203 6.09766C11.8998 6.43355 11.4315 7.57961 11.4315 7.57961L5.10895 18.7345C5.01999 19.0843 4.99528 19.4 5.0064 19.6781H11.9072L16.0019 12.4507Z" fill="#34A853"/>
<path d="M16.002 12.4507L20.0967 19.6781H26.9975C27.0086 19.4 26.9839 19.0843 26.8949 18.7345L20.5724 7.57961C20.5724 7.57961 20.1029 6.43355 19.0835 6.09766C19.2145 6.14924 19.3479 6.22598 19.4628 6.34297L16.002 12.4507Z" fill="#FBBC05"/>
<path d="M16.0019 12.4514L19.4628 6.34371C19.3479 6.22671 19.2144 6.14997 19.0835 6.09839C18.9327 6.04933 18.7709 6.01662 18.5954 6.00781H18.4125H13.5913H13.4084C13.2342 6.01536 13.0711 6.04807 12.9203 6.09839C12.7894 6.14997 12.6559 6.22671 12.541 6.34371L16.0019 12.4514Z" fill="#188038"/>
<path d="M11.9082 19.6782L8.48687 25.7168C8.48687 25.7168 8.3732 25.6614 8.21875 25.5469C8.70434 25.9206 9.17633 25.9998 9.17633 25.9998H22.6134C23.3547 25.9998 23.5092 25.7168 23.5092 25.7168C23.5116 25.7155 23.5129 25.7142 23.5153 25.713L20.0965 19.6782H11.9082Z" fill="#4285F4"/>
<path d="M11.9086 19.6782H5.00781C5.04241 20.4985 5.39826 20.9778 5.39826 20.9778L5.65773 21.4281C5.67627 21.4546 5.68739 21.4697 5.68739 21.4697L6.25205 22.461L7.51976 24.6676C7.55683 24.7569 7.60008 24.8386 7.6458 24.9166C7.66309 24.9431 7.67915 24.972 7.69769 24.9972C7.70263 25.0047 7.70757 25.0123 7.71252 25.0198C7.86944 25.2412 8.04489 25.4123 8.22034 25.5469C8.37479 25.6627 8.48847 25.7168 8.48847 25.7168L11.9086 19.6782Z" fill="#1967D2"/>
<path d="M20.0967 19.6782H26.9974C26.9628 20.4985 26.607 20.9778 26.607 20.9778L26.3475 21.4281C26.329 21.4546 26.3179 21.4697 26.3179 21.4697L25.7532 22.461L24.4855 24.6676C24.4484 24.7569 24.4052 24.8386 24.3595 24.9166C24.3422 24.9431 24.3261 24.972 24.3076 24.9972C24.3026 25.0047 24.2977 25.0123 24.2927 25.0198C24.1358 25.2412 23.9604 25.4123 23.7849 25.5469C23.6305 25.6627 23.5168 25.7168 23.5168 25.7168L20.0967 19.6782Z" fill="#EA4335"/>
</svg>