<svg id="visual" viewBox="0 0 900 600" width="900" height="600" xmlns="http://www.w3.org/2000/svg" xmlns:xlink="http://www.w3.org/1999/xlink" version="1.1"><path d="M0 405L21.5 400C43 395 86 385 128.8 382.3C171.7 379.7 214.3 384.3 257.2 396.2C300 408 343 427 385.8 435.5C428.7 444 471.3 442 514.2 430C557 418 600 396 642.8 386.5C685.7 377 728.3 380 771.2 378.2C814 376.3 857 369.7 878.5 366.3L900 363L900 601L878.5 601C857 601 814 601 771.2 601C728.3 601 685.7 601 642.8 601C600 601 557 601 514.2 601C471.3 601 428.7 601 385.8 601C343 601 300 601 257.2 601C214.3 601 171.7 601 128.8 601C86 601 43 601 21.5 601L0 601Z" fill="#02172c"></path><path d="M0 401L21.5 408.3C43 415.7 86 430.3 128.8 440.2C171.7 450 214.3 455 257.2 459.8C300 464.7 343 469.3 385.8 470.2C428.7 471 471.3 468 514.2 468.3C557 468.7 600 472.3 642.8 468.2C685.7 464 728.3 452 771.2 452.7C814 453.3 857 466.7 878.5 473.3L900 480L900 601L878.5 601C857 601 814 601 771.2 601C728.3 601 685.7 601 642.8 601C600 601 557 601 514.2 601C471.3 601 428.7 601 385.8 601C343 601 300 601 257.2 601C214.3 601 171.7 601 128.8 601C86 601 43 601 21.5 601L0 601Z" fill="#071424"></path><path d="M0 492L21.5 494.8C43 497.7 86 503.3 128.8 499.3C171.7 495.3 214.3 481.7 257.2 479.2C300 476.7 343 485.3 385.8 484.7C428.7 484 471.3 474 514.2 466C557 458 600 452 642.8 452.7C685.7 453.3 728.3 460.7 771.2 466.3C814 472 857 476 878.5 478L900 480L900 601L878.5 601C857 601 814 601 771.2 601C728.3 601 685.7 601 642.8 601C600 601 557 601 514.2 601C471.3 601 428.7 601 385.8 601C343 601 300 601 257.2 601C214.3 601 171.7 601 128.8 601C86 601 43 601 21.5 601L0 601Z" fill="#09111c"></path><path d="M0 506L21.5 503.3C43 500.7 86 495.3 128.8 491.3C171.7 487.3 214.3 484.7 257.2 483.3C300 482 343 482 385.8 486.8C428.7 491.7 471.3 501.3 514.2 503.8C557 506.3 600 501.7 642.8 500.2C685.7 498.7 728.3 500.3 771.2 502C814 503.7 857 505.3 878.5 506.2L900 507L900 601L878.5 601C857 601 814 601 771.2 601C728.3 601 685.7 601 642.8 601C600 601 557 601 514.2 601C471.3 601 428.7 601 385.8 601C343 601 300 601 257.2 601C214.3 601 171.7 601 128.8 601C86 601 43 601 21.5 601L0 601Z" fill="#0a0e15"></path><path d="M0 568L21.5 561.3C43 554.7 86 541.3 128.8 537.3C171.7 533.3 214.3 538.7 257.2 539.5C300 540.3 343 536.7 385.8 535.7C428.7 534.7 471.3 536.3 514.2 541C557 545.7 600 553.3 642.8 555C685.7 556.7 728.3 552.3 771.2 552.7C814 553 857 558 878.5 560.5L900 563L900 601L878.5 601C857 601 814 601 771.2 601C728.3 601 685.7 601 642.8 601C600 601 557 601 514.2 601C471.3 601 428.7 601 385.8 601C343 601 300 601 257.2 601C214.3 601 171.7 601 128.8 601C86 601 43 601 21.5 601L0 601Z" fill="#0a0a0a"></path></svg>