<svg id="visual" viewBox="0 0 900 600" width="900" height="600" xmlns="http://www.w3.org/2000/svg" xmlns:xlink="http://www.w3.org/1999/xlink" version="1.1"><rect x="0" y="0" width="900" height="600" fill="#001220"></rect><path d="M0 377L21.5 380.2C43 383.3 86 389.7 128.8 400.7C171.7 411.7 214.3 427.3 257.2 420.2C300 413 343 383 385.8 381.2C428.7 379.3 471.3 405.7 514.2 407.8C557 410 600 388 642.8 385.2C685.7 382.3 728.3 398.7 771.2 397.3C814 396 857 377 878.5 367.5L900 358L900 601L878.5 601C857 601 814 601 771.2 601C728.3 601 685.7 601 642.8 601C600 601 557 601 514.2 601C471.3 601 428.7 601 385.8 601C343 601 300 601 257.2 601C214.3 601 171.7 601 128.8 601C86 601 43 601 21.5 601L0 601Z" fill="#02172c"></path><path d="M0 426L21.5 431.7C43 437.3 86 448.7 128.8 447.7C171.7 446.7 214.3 433.3 257.2 422.3C300 411.3 343 402.7 385.8 411.8C428.7 421 471.3 448 514.2 448.3C557 448.7 600 422.3 642.8 414.8C685.7 407.3 728.3 418.7 771.2 431C814 443.3 857 456.7 878.5 463.3L900 470L900 601L878.5 601C857 601 814 601 771.2 601C728.3 601 685.7 601 642.8 601C600 601 557 601 514.2 601C471.3 601 428.7 601 385.8 601C343 601 300 601 257.2 601C214.3 601 171.7 601 128.8 601C86 601 43 601 21.5 601L0 601Z" fill="#011328"></path><path d="M0 464L21.5 463.3C43 462.7 86 461.3 128.8 465.3C171.7 469.3 214.3 478.7 257.2 476.7C300 474.7 343 461.3 385.8 461.8C428.7 462.3 471.3 476.7 514.2 486.5C557 496.3 600 501.7 642.8 500C685.7 498.3 728.3 489.7 771.2 479.5C814 469.3 857 457.7 878.5 451.8L900 446L900 601L878.5 601C857 601 814 601 771.2 601C728.3 601 685.7 601 642.8 601C600 601 557 601 514.2 601C471.3 601 428.7 601 385.8 601C343 601 300 601 257.2 601C214.3 601 171.7 601 128.8 601C86 601 43 601 21.5 601L0 601Z" fill="#000e24"></path><path d="M0 507L21.5 511.2C43 515.3 86 523.7 128.8 519.8C171.7 516 214.3 500 257.2 493.5C300 487 343 490 385.8 498.3C428.7 506.7 471.3 520.3 514.2 520.2C557 520 600 506 642.8 500C685.7 494 728.3 496 771.2 496.2C814 496.3 857 494.7 878.5 493.8L900 493L900 601L878.5 601C857 601 814 601 771.2 601C728.3 601 685.7 601 642.8 601C600 601 557 601 514.2 601C471.3 601 428.7 601 385.8 601C343 601 300 601 257.2 601C214.3 601 171.7 601 128.8 601C86 601 43 601 21.5 601L0 601Z" fill="#000720"></path><path d="M0 537L21.5 538.2C43 539.3 86 541.7 128.8 545.8C171.7 550 214.3 556 257.2 555.3C300 554.7 343 547.3 385.8 547.5C428.7 547.7 471.3 555.3 514.2 556.5C557 557.7 600 552.3 642.8 552C685.7 551.7 728.3 556.3 771.2 553.2C814 550 857 539 878.5 533.5L900 528L900 601L878.5 601C857 601 814 601 771.2 601C728.3 601 685.7 601 642.8 601C600 601 557 601 514.2 601C471.3 601 428.7 601 385.8 601C343 601 300 601 257.2 601C214.3 601 171.7 601 128.8 601C86 601 43 601 21.5 601L0 601Z" fill="#000000"></path></svg>