<svg id="visual" viewBox="0 0 900 600" width="900" height="600" xmlns="http://www.w3.org/2000/svg" xmlns:xlink="http://www.w3.org/1999/xlink" version="1.1"><path d="M0 354L21.5 353.7C43 353.3 86 352.7 128.8 367.2C171.7 381.7 214.3 411.3 257.2 420.5C300 429.7 343 418.3 385.8 414.5C428.7 410.7 471.3 414.3 514.2 406.7C557 399 600 380 642.8 384.5C685.7 389 728.3 417 771.2 421.3C814 425.7 857 406.3 878.5 396.7L900 387L900 601L878.5 601C857 601 814 601 771.2 601C728.3 601 685.7 601 642.8 601C600 601 557 601 514.2 601C471.3 601 428.7 601 385.8 601C343 601 300 601 257.2 601C214.3 601 171.7 601 128.8 601C86 601 43 601 21.5 601L0 601Z" fill="#3b82f6"></path><path d="M0 441L21.5 439.2C43 437.3 86 433.7 128.8 428C171.7 422.3 214.3 414.7 257.2 413.7C300 412.7 343 418.3 385.8 416.8C428.7 415.3 471.3 406.7 514.2 414.7C557 422.7 600 447.3 642.8 459.2C685.7 471 728.3 470 771.2 465.3C814 460.7 857 452.3 878.5 448.2L900 444L900 601L878.5 601C857 601 814 601 771.2 601C728.3 601 685.7 601 642.8 601C600 601 557 601 514.2 601C471.3 601 428.7 601 385.8 601C343 601 300 601 257.2 601C214.3 601 171.7 601 128.8 601C86 601 43 601 21.5 601L0 601Z" fill="#1665bc"></path><path d="M0 437L21.5 440.2C43 443.3 86 449.7 128.8 452.5C171.7 455.3 214.3 454.7 257.2 462.5C300 470.3 343 486.7 385.8 485.8C428.7 485 471.3 467 514.2 466.2C557 465.3 600 481.7 642.8 483.5C685.7 485.3 728.3 472.7 771.2 471.2C814 469.7 857 479.3 878.5 484.2L900 489L900 601L878.5 601C857 601 814 601 771.2 601C728.3 601 685.7 601 642.8 601C600 601 557 601 514.2 601C471.3 601 428.7 601 385.8 601C343 601 300 601 257.2 601C214.3 601 171.7 601 128.8 601C86 601 43 601 21.5 601L0 601Z" fill="#004984"></path><path d="M0 526L21.5 518.7C43 511.3 86 496.7 128.8 491.8C171.7 487 214.3 492 257.2 499.3C300 506.7 343 516.3 385.8 516.2C428.7 516 471.3 506 514.2 499.5C557 493 600 490 642.8 489.8C685.7 489.7 728.3 492.3 771.2 500.8C814 509.3 857 523.7 878.5 530.8L900 538L900 601L878.5 601C857 601 814 601 771.2 601C728.3 601 685.7 601 642.8 601C600 601 557 601 514.2 601C471.3 601 428.7 601 385.8 601C343 601 300 601 257.2 601C214.3 601 171.7 601 128.8 601C86 601 43 601 21.5 601L0 601Z" fill="#002d4f"></path><path d="M0 526L21.5 532C43 538 86 550 128.8 550.5C171.7 551 214.3 540 257.2 535C300 530 343 531 385.8 530.8C428.7 530.7 471.3 529.3 514.2 530.3C557 531.3 600 534.7 642.8 535.5C685.7 536.3 728.3 534.7 771.2 540.7C814 546.7 857 560.3 878.5 567.2L900 574L900 601L878.5 601C857 601 814 601 771.2 601C728.3 601 685.7 601 642.8 601C600 601 557 601 514.2 601C471.3 601 428.7 601 385.8 601C343 601 300 601 257.2 601C214.3 601 171.7 601 128.8 601C86 601 43 601 21.5 601L0 601Z" fill="#001220"></path></svg>