<svg id="visual" viewBox="0 0 900 600" width="900" height="600" xmlns="http://www.w3.org/2000/svg" xmlns:xlink="http://www.w3.org/1999/xlink" version="1.1"><path d="M0 481L21.5 476.8C43 472.7 86 464.3 128.8 481C171.7 497.7 214.3 539.3 257.2 558.3C300 577.3 343 573.7 385.8 555.5C428.7 537.3 471.3 504.7 514.2 500.8C557 497 600 522 642.8 527.5C685.7 533 728.3 519 771.2 504.8C814 490.7 857 476.3 878.5 469.2L900 462L900 601L878.5 601C857 601 814 601 771.2 601C728.3 601 685.7 601 642.8 601C600 601 557 601 514.2 601C471.3 601 428.7 601 385.8 601C343 601 300 601 257.2 601C214.3 601 171.7 601 128.8 601C86 601 43 601 21.5 601L0 601Z" fill="#001220" stroke-linecap="round" stroke-linejoin="miter"></path></svg>