<svg id="visual" viewBox="0 0 900 600" width="900" height="600" xmlns="http://www.w3.org/2000/svg" xmlns:xlink="http://www.w3.org/1999/xlink" version="1.1"><path d="M0 464L21.5 459.5C43 455 86 446 128.8 462.8C171.7 479.7 214.3 522.3 257.2 529C300 535.7 343 506.3 385.8 507.8C428.7 509.3 471.3 541.7 514.2 536C557 530.3 600 486.7 642.8 476.3C685.7 466 728.3 489 771.2 489C814 489 857 466 878.5 454.5L900 443L900 601L878.5 601C857 601 814 601 771.2 601C728.3 601 685.7 601 642.8 601C600 601 557 601 514.2 601C471.3 601 428.7 601 385.8 601C343 601 300 601 257.2 601C214.3 601 171.7 601 128.8 601C86 601 43 601 21.5 601L0 601Z" fill="#001220" stroke-linecap="round" stroke-linejoin="miter"></path></svg>