<svg id="visual" viewBox="0 0 900 600" width="900" height="600" xmlns="http://www.w3.org/2000/svg" xmlns:xlink="http://www.w3.org/1999/xlink" version="1.1"><path d="M0 436L21.5 448.8C43 461.7 86 487.3 128.8 485.7C171.7 484 214.3 455 257.2 439.5C300 424 343 422 385.8 433.8C428.7 445.7 471.3 471.3 514.2 482.8C557 494.3 600 491.7 642.8 482.5C685.7 473.3 728.3 457.7 771.2 453.7C814 449.7 857 457.3 878.5 461.2L900 465L900 601L878.5 601C857 601 814 601 771.2 601C728.3 601 685.7 601 642.8 601C600 601 557 601 514.2 601C471.3 601 428.7 601 385.8 601C343 601 300 601 257.2 601C214.3 601 171.7 601 128.8 601C86 601 43 601 21.5 601L0 601Z" fill="#001220" stroke-linecap="round" stroke-linejoin="miter"></path></svg>