<svg id="visual" viewBox="0 0 900 600" width="900" height="600" xmlns="http://www.w3.org/2000/svg" xmlns:xlink="http://www.w3.org/1999/xlink" version="1.1"><path d="M0 441L30 441.7C60 442.3 120 443.7 180 465.5C240 487.3 300 529.7 360 549C420 568.3 480 564.7 540 549.8C600 535 660 509 720 512.8C780 516.7 840 550.3 870 567.2L900 584L900 601L870 601C840 601 780 601 720 601C660 601 600 601 540 601C480 601 420 601 360 601C300 601 240 601 180 601C120 601 60 601 30 601L0 601Z" fill="#001220" stroke-linecap="round" stroke-linejoin="miter"></path></svg>