<svg id="visual" viewBox="0 0 900 600" width="900" height="600" xmlns="http://www.w3.org/2000/svg" xmlns:xlink="http://www.w3.org/1999/xlink" version="1.1"><path d="M0 540L21.5 535.2C43 530.3 86 520.7 128.8 516.8C171.7 513 214.3 515 257.2 504C300 493 343 469 385.8 461.7C428.7 454.3 471.3 463.7 514.2 484.3C557 505 600 537 642.8 553.2C685.7 569.3 728.3 569.7 771.2 551C814 532.3 857 494.7 878.5 475.8L900 457L900 601L878.5 601C857 601 814 601 771.2 601C728.3 601 685.7 601 642.8 601C600 601 557 601 514.2 601C471.3 601 428.7 601 385.8 601C343 601 300 601 257.2 601C214.3 601 171.7 601 128.8 601C86 601 43 601 21.5 601L0 601Z" fill="#001220" stroke-linecap="round" stroke-linejoin="miter"></path></svg>