<?xml version="1.0" encoding="UTF-8"?>
<!DOCTYPE svg PUBLIC "-//W3C//DTD SVG 1.1//EN" "http://www.w3.org/Graphics/SVG/1.1/DTD/svg11.dtd">
<svg xmlns="http://www.w3.org/2000/svg" version="1.1" width="512px" height="512px" style="shape-rendering:geometricPrecision; text-rendering:geometricPrecision; image-rendering:optimizeQuality; fill-rule:evenodd; clip-rule:evenodd" xmlns:xlink="http://www.w3.org/1999/xlink">
<path d="M 253.5,218.5 
         C 210.82,219.161 168.487,218.495 126.5,216.5
         C 151.826,181.262 184.159,173.095 223.5,192
         C 234.933,199.269 244.933,208.103 253.5,218.5 
         
         M 431.5,222.5 
         C 402.167,222.5 372.833,222.5 343.5,222.5
         C 359.103,208.508 377.436,203.008 398.5,206
         C 411.48,207.823 422.48,213.323 431.5,222.5 
         
         M 126.5,216.5 
         C 168.487,218.495 210.82,219.161 253.5,218.5
         C 259.733,226.619 265.733,234.952 271.5,243.5
         C 248.908,244.489 226.242,244.822 203.5,244.5
         C 192.844,234.869 182.511,235.203 172.5,245.5
         C 151.34,244.503 130.007,244.169 108.5,244.5
         C 113.506,234.479 119.506,225.146 126.5,216.5 
         
         M 343.5,222.5 
         C 372.833,222.5 402.167,222.5 431.5,222.5
         C 438.769,229.046 445.102,236.38 450.5,244.5
         C 409.167,244.5 367.833,244.5 326.5,244.5
         C 331.201,236.436 336.868,229.102 343.5,222.5 
         
         M 51.5,244.5 
         C 34.1667,244.5 16.8333,244.5 -0.5,244.5
         C -0.5,243.833 -0.5,243.167 -0.5,242.5
         C 7.31896,226.94 19.6523,221.774 36.5,227
         C 43.4799,231.12 48.4799,236.954 51.5,244.5 
         
         M 510.5,244.5 
         C 493.167,244.5 475.833,244.5 458.5,244.5
         C 463.854,233.46 472.521,227.126 484.5,225.5
         C 497.535,226.004 506.201,232.337 510.5,244.5 
         
         M -0.5,244.5 
         C 16.8333,244.5 34.1667,244.5 51.5,244.5
         C 56.496,252.678 62.496,260.178 69.5,267
         C 75.9785,272.419 82.6451,272.752 89.5,268
         C 96.835,260.847 103.168,253.013 108.5,244.5
         C 130.007,244.169 151.34,244.503 172.5,245.5
         C 164.668,254.486 158.334,264.486 153.5,275.5
         C 104.428,275.172 55.4281,275.505 6.5,276.5
         C 3.84684,270.874 1.51351,265.207 -0.5,259.5
         C -0.5,254.5 -0.5,249.5 -0.5,244.5 
         
         M 271.5,243.5 
         C 277.493,253.963 284.827,263.463 293.5,272
         C 295.167,272.833 296.833,273.667 298.5,274.5
         C 303.446,271.057 307.946,267.057 312,262.5
         C 316.697,256.312 321.531,250.312 326.5,244.5
         C 367.833,244.5 409.167,244.5 450.5,244.5
         C 451.807,245.153 453.14,245.82 454.5,246.5
         C 455.86,245.82 457.193,245.153 458.5,244.5
         C 475.833,244.5 493.167,244.5 510.5,244.5
         C 510.833,244.5 511.167,244.5 511.5,244.5
         C 511.5,249.833 511.5,255.167 511.5,260.5
         C 509.757,265.705 507.424,270.705 504.5,275.5
         C 471.5,275.5 438.5,275.5 405.5,275.5
         C 402.451,270.612 398.784,266.112 394.5,262
         C 390.968,259.476 387.302,259.143 383.5,261
         C 378.228,265.765 373.561,270.931 369.5,276.5
         C 322.167,275.167 274.833,275.167 227.5,276.5
         C 219.916,265.574 211.916,254.908 203.5,244.5
         C 226.242,244.822 248.908,244.489 271.5,243.5 
         
         M 153.5,275.5 
         C 148.18,285.806 141.18,294.806 132.5,302.5
         C 97.6627,302.168 62.996,302.502 28.5,303.5
         C 19.6826,295.685 12.3493,286.685 6.5,276.5
         C 55.4281,275.505 104.428,275.172 153.5,275.5 
         
         M 369.5,276.5 
         C 363.933,285.733 357.599,294.4 350.5,302.5
         C 316.167,302.5 281.833,302.5 247.5,302.5
         C 239.716,294.713 233.049,286.046 227.5,276.5
         C 274.833,275.167 322.167,275.167 369.5,276.5 
         
         M 405.5,275.5 
         C 438.5,275.5 471.5,275.5 504.5,275.5
         C 493.304,293.528 477.137,303.528 456,305.5
         C 433.826,304.335 416.993,294.335 405.5,275.5 
         
         M 132.5,302.5 
         C 109.996,324.541 83.6628,330.708 53.5,321
         C 43.8802,316.86 35.5469,311.027 28.5,303.5
         C 62.996,302.502 97.6627,302.168 132.5,302.5 
         
         M 247.5,302.5 
         C 281.833,302.5 316.167,302.5 350.5,302.5
         C 328.257,328.644 301.257,335.144 269.5,322
         C 264.322,318.578 259.322,314.911 254.5,311
         C 251.577,308.584 249.243,305.75 247.5,302.5"
      style="fill:#288cf7; fill-opacity:1; stroke:none;" />
</svg>
